PathFileType	4	(X/Y/Z)	C:\Users\chris\Documents\GitHub\baseballds\vids\pitch1_Sports2D\pitch1_Sports2D_px_person00.trc
DataRate	CameraRate	NumFrames	NumMarkers	Units	OrigDataRate	OrigDataStartFrame	OrigNumFrames
30	30	10	22	m	30	0	154
Frame#	Time	Hip			RHip			RKnee			RAnkle			RBigToe			RSmallToe			RHeel			LHip			LKnee			LAnkle			LBigToe			LSmallToe			LHeel			Neck			Head			Nose			RShoulder			RElbow			RWrist			LShoulder			LElbow			LWrist		
		X1	Y1	Z1	X2	Y2	Z2	X3	Y3	Z3	X4	Y4	Z4	X5	Y5	Z5	X6	Y6	Z6	X7	Y7	Z7	X8	Y8	Z8	X9	Y9	Z9	X10	Y10	Z10	X11	Y11	Z11	X12	Y12	Z12	X13	Y13	Z13	X14	Y14	Z14	X15	Y15	Z15	X16	Y16	Z16	X17	Y17	Z17	X18	Y18	Z18	X19	Y19	Z19	X20	Y20	Z20	X21	Y21	Z21	X22	Y22	Z22
0	0.0	707.4694270140747	521.7406167250507	0.0	657.1398840382435	537.0584873269163	0.0	663.7049359614784	740.5638296769973	0.0	668.0812445616484	902.49280176003	0.0	679.0225557974801	961.5756583701165	0.0	646.1990320814238	957.1989233405002	0.0	674.6459381796714	919.9987000534989	0.0	759.9869846949548	539.2464668983677	0.0	773.1166092479409	731.8105574408121	0.0	805.9400757757816	895.928216099973	0.0	777.4926288149624	957.1989127516497	0.0	810.3160969713649	955.010461144683	0.0	816.8808584719666	919.9991245485211	0.0	698.7164815956344	252.58802469806622	0.0	727.1637814673526	130.04711667677756	0.0	764.3634570893352	200.07096569804932	0.0	604.6226312577933	298.5408618507202	0.0	600.2460763224877	421.0817439751223	0.0	665.8935076589859	377.31798526222684	0.0	788.4341538247593	289.7881003827613	0.0	803.7516924995836	425.4586751278138	0.0	764.3636454434262	403.575623617099	0.0
1	0.03333333333333333	705.6952455595136	526.0257974543223	0.0	654.3908528011216	543.8547714517968	0.0	662.3804706843121	741.3656591441054	0.0	666.1932755542242	899.9968183456775	0.0	677.4799537878247	959.9042520005263	0.0	645.3968325275418	956.9545010281354	0.0	672.6872400825247	919.8791274729716	0.0	756.9064050371909	543.7401430536344	0.0	773.1840101512638	733.3509329738664	0.0	805.9893438957122	890.4833051862727	0.0	780.1418968373746	953.7498155630279	0.0	812.9431666486214	952.0407827722015	0.0	814.3126741494866	913.978657261439	0.0	696.0144541361119	251.43253057110837	0.0	724.114354896626	130.50477757923784	0.0	760.7375609701945	202.1848485928858	0.0	602.2335494280346	295.53528734958985	0.0	595.5315735913833	419.8833686812013	0.0	662.004724907558	376.0070320321255	0.0	784.8629971910535	287.51011234952466	0.0	805.2749203893088	419.3097391155869	0.0	775.2191605893365	408.03206716998716	0.0
2	0.06666666666666667	703.8119126137975	527.8317790707473	0.0	652.1057671082497	546.4327540654031	0.0	660.938221153407	741.5082893678848	0.0	664.3557591756665	899.7133919653895	0.0	677.4525288208758	959.5445269585668	0.0	645.2179238266617	957.9143589320327	0.0	670.9627951730969	920.2341140484386	0.0	754.4686921183248	545.6434428529402	0.0	772.3130977783692	733.9311527294867	0.0	805.0971353156395	887.205633815176	0.0	782.120213815061	951.2519090578322	0.0	814.9192851715295	949.5249955141571	0.0	811.6592549273265	910.1347861968126	0.0	693.6394322216447	250.76679889143455	0.0	721.5514641252353	131.03320224858896	0.0	758.0895521166099	202.7754017687014	0.0	599.8550397209359	294.67261349304346	0.0	590.7997696160177	420.2078240742265	0.0	655.7626154556151	377.4333301871981	0.0	782.1220308890084	286.9197109317807	0.0	804.3134124484494	417.5519582849653	0.0	778.2317027986217	411.47640558598437	0.0
3	0.1	701.9148017477028	527.5972551789964	0.0	650.4709441944946	545.7790374787073	0.0	659.4774532224965	741.0783358582485	0.0	662.689301138116	901.4393933386089	0.0	678.3016000769281	960.0967648481443	0.0	645.6644352227374	959.3559048852985	0.0	669.750830766644	922.074834748561	0.0	752.6794571132123	545.2281614382191	0.0	770.7223296859826	733.8081883632324	0.0	803.7528972143103	886.2531138647134	0.0	782.0039146557599	949.320729540824	0.0	815.0887304735579	947.79367552553	0.0	810.0600540387613	908.948222162876	0.0	691.6000928594107	250.665263155072	0.0	719.2827305550691	131.32236540873265	0.0	756.2592016252693	201.61558812919492	0.0	597.5222563431058	295.46744877194305	0.0	586.6576144456853	421.8246745867069	0.0	649.2663323413126	382.4189063482771	0.0	780.4934308319359	287.853241009164	0.0	801.5828512416525	420.02615527796195	0.0	772.3333781133517	414.1258411013431	0.0
4	0.13333333333333333	700.2498847633503	527.3360331532099	0.0	649.0517682543564	545.1961254320133	0.0	657.9811918137161	740.781078737087	0.0	661.487964131295	903.1906638948524	0.0	678.133683258505	960.4211956548766	0.0	645.714067590187	959.7838660378019	0.0	668.8450218588874	924.622758676302	0.0	750.9889578845796	544.5070763044314	0.0	769.073507578265	733.7527796036195	0.0	802.9261201801227	886.2301795622316	0.0	778.8799574196614	947.7834441805664	0.0	812.75561377882	947.0433377627786	0.0	810.6476389918224	909.1600667881619	0.0	689.8816341649621	250.76450142317654	0.0	717.1389099802755	131.35605784699663	0.0	754.7062636231421	200.05607803962636	0.0	595.8318757547593	295.5712836889132	0.0	583.0332784565487	423.57882923724674	0.0	644.6697965722923	388.52419442500525	0.0	779.7715053625395	288.79706796951547	0.0	799.5032364834274	423.5742466558414	0.0	764.0249443786392	416.83396189306455	0.0
5	0.16666666666666666	699.0336743071925	527.8963564079389	0.0	647.4489824180959	545.8059891049102	0.0	656.5092095498337	741.139070992334	0.0	660.661061605342	903.4907404046041	0.0	676.5714595898905	960.0431752685126	0.0	644.5450942641395	959.0147774389123	0.0	667.6792538275145	925.3491529095904	0.0	749.1822210264434	544.7840146392206	0.0	767.7228962335628	733.7981467830576	0.0	802.7987246241888	886.6671203575173	0.0	773.8658127173424	947.5902639260291	0.0	808.7061428954822	947.379518140188	0.0	812.6739936602837	910.1819528988578	0.0	688.822942138758	251.06326505415376	0.0	715.9952871830534	131.5737108097714	0.0	753.7255603441431	200.26053034648103	0.0	595.4994584384027	294.4537363259772	0.0	579.3324977654026	425.2677167728026	0.0	642.1053501585005	392.77374668181403	0.0	779.6735315517585	289.36435736612367	0.0	798.7015699654305	426.79688353849116	0.0	759.4996910502937	420.18631333566924	0.0
6	0.2	698.2301346328995	528.8778495999475	0.0	646.0004915392016	546.6951918872888	0.0	655.4460618934493	741.9863319108802	0.0	659.793992306389	902.8531835809578	0.0	675.162600331304	959.9072808839062	0.0	642.8126517351146	958.607768835684	0.0	666.3443842253193	923.9984179324897	0.0	747.8364931463626	545.8585232886048	0.0	766.7258096314298	733.7920075591725	0.0	802.6710688042398	888.2762744534049	0.0	769.0386377771213	949.3926853039374	0.0	804.421583766278	948.8789664460837	0.0	814.0309674220189	912.4492068702507	0.0	688.7887077241805	252.16263442301408	0.0	716.5484707332593	132.20570578527077	0.0	754.1262629648985	202.64959162254465	0.0	596.1057928907899	294.34290828997746	0.0	576.0579068291893	427.63878078308505	0.0	642.2536608546841	395.4137097831922	0.0	780.0144040476374	290.7591071362883	0.0	798.1691834721006	430.860246361245	0.0	757.7761124283198	424.1696234816486	0.0
7	0.23333333333333334	697.6980612558297	529.8597272383334	0.0	645.2985398352683	546.7503051872015	0.0	654.9671085543474	742.6184271316314	0.0	658.9519446911156	903.0222815135395	0.0	674.9856755296431	961.2000554887766	0.0	641.757614391548	959.8754223525387	0.0	665.5386252950177	923.1969761664951	0.0	747.476541155527	546.6736611295316	0.0	765.8516808314846	734.1125970538196	0.0	801.6732190169157	890.9200626609017	0.0	765.6065267839199	952.320312100192	0.0	801.0211138348668	951.1812716670249	0.0	813.479321390919	915.3502990311447	0.0	689.6831618811909	254.10329708924374	0.0	717.8109644825952	133.25980511057634	0.0	755.825181730482	205.14823020090364	0.0	596.7049360515166	296.4564789795425	0.0	574.0486722855482	431.0869021389081	0.0	644.7546348091214	398.4787194003022	0.0	780.5655247346434	293.47959617531524	0.0	798.3494406053592	435.9572525922972	0.0	755.3835166020183	428.4965790942007	0.0
8	0.26666666666666666	697.4678890172385	530.665664483231	0.0	645.3771029645247	545.7075970124823	0.0	654.8415101058931	742.5225111817784	0.0	658.361716540509	904.4173052051251	0.0	675.6929708632857	963.209414074813	0.0	641.9346541977667	961.9279418794479	0.0	665.3546329728885	924.2444308887546	0.0	747.7878235516132	546.726556618972	0.0	764.7361771228923	735.118172182124	0.0	799.8659902892616	893.1421954262734	0.0	763.8501614595318	954.6466814649577	0.0	799.1650947372136	953.2281032389839	0.0	811.6347812206577	916.9560919847338	0.0	691.0160859347027	255.92680820666072	0.0	718.7444840343707	134.81023757046063	0.0	757.6622845258732	206.61917202107554	0.0	597.3028019485419	299.0272688809529	0.0	572.9458435671045	435.29429210471346	0.0	646.6604350220871	402.5925273251063	0.0	780.8404272788989	296.54012851216703	0.0	800.8094190024186	440.10724823588305	0.0	753.064505841799	433.40098288401606	0.0
9	0.3	697.5261214598021	531.2485935900424	0.0	645.9140625663536	544.6781284875876	0.0	655.0389616039424	742.0631806586713	0.0	657.9280694489499	905.6334290456452	0.0	676.4799520630585	964.2095650645015	0.0	642.7481166066033	962.9649742074516	0.0	665.3030314504321	925.8082630084449	0.0	748.1282323116511	546.5697870307324	0.0	763.4143341987407	736.6626110028174	0.0	798.2758530253312	894.1170713573715	0.0	763.3576307609692	955.553806271017	0.0	798.6689463364656	954.3945912481637	0.0	809.8722853864354	916.6592512916948	0.0	692.1958844902358	257.01915814354464	0.0	719.8393274478602	136.61830134428982	0.0	758.805419093511	207.92780662690672	0.0	598.2627370251644	300.3241849148144	0.0	572.1294744598322	439.3519444027684	0.0	646.7236514459779	406.94926140579247	0.0	780.3325199258404	299.1380180467442	0.0	805.2187538536505	441.82293181871285	0.0	753.3291127197881	439.07971166590454	0.0
